<?xml version="1.0" encoding="UTF-8" standalone="no"?>
<svg width="243px" height="50px" viewBox="0 0 243 50" version="1.1" xmlns="http://www.w3.org/2000/svg" xmlns:xlink="http://www.w3.org/1999/xlink">
    <!-- Generator: Sketch 3.7.2 (28276) - http://www.bohemiancoding.com/sketch -->
    <title>Logo</title>
    <desc>Created with Sketch.</desc>
    <defs>
        <polygon id="path-1" points="93.596411 49.5428571 0 49.5428571 0 25.2211029 0 0.899348571 93.596411 0.899348571"/>
        <polygon id="path-3" points="5.59696629 5.22039363 5.59696629 0.132050769 0.412919043 0.132050769 0.412919043 5.22039363 5.59696629 5.22039363"/>
    </defs>
    <g id="Visual-Design-Theory" stroke="none" stroke-width="1" fill="none" fill-rule="evenodd">
        <g id="General-Styles" transform="translate(-39.000000, -208.000000)">
            <g id="Logo" transform="translate(39.000000, 207.000000)">
                <g id="Group-3" transform="translate(0.000000, 0.557794)">
                    <mask id="mask-2" fill="white">
                        <use xlink:href="#path-1"/>
                    </mask>
                    <g id="Clip-2"/>
                    <path d="M91.4775594,28.6433486 C91.417592,29.3486057 91.1805776,30.0422057 91.1805776,30.0422057 C90.6808484,31.7426914 89.6871014,33.3950914 88.2250367,34.9906629 C84.9411024,38.5796057 79.2798852,41.7503486 72.0852135,43.9797771 C68.4586078,45.11052 64.4422134,46.0066629 60.1516818,46.6142914 L75.706108,12.19512 C76.7583948,12.6016629 77.772131,13.0256914 78.7401778,13.47012 C82.7879837,15.3338057 86.0333675,17.55012 88.2250367,19.9354629 C90.4167059,22.3280914 91.5560883,24.8518629 91.5560883,27.4659771 C91.5560883,27.8594057 91.523249,28.19892 91.4775594,28.6433486 L91.4775594,28.6433486 Z M49.5402906,7.43026286 C55.3000258,7.58617714 60.7770571,8.24043429 65.7457925,9.29977714 L58.6182273,29.0688343 L49.5402906,7.43026286 Z M46.801775,47.5352057 C43.7348659,47.5352057 40.7393467,47.3982343 37.8494845,47.13012 L46.7289573,24.0548057 L56.0767477,47.0980629 C53.0812285,47.38512 49.9814801,47.5352057 46.801775,47.5352057 L46.801775,47.5352057 Z M28.5288223,9.15552 C33.3476389,8.17486286 38.6204952,7.57452 44.1617774,7.42297714 L35.4536403,29.0032629 L28.5288223,9.15552 Z M14.8633722,41.4560057 C10.8084272,39.5937771 7.56447127,37.3832914 5.37137428,34.9906629 C3.95071574,33.44172 2.87701201,31.5255771 2.46295073,30.1864629 C2.32445437,29.7551486 2.18595801,29.0615486 2.18595801,29.0615486 C2.08743998,28.5326057 2.04175046,28.0022057 2.04175046,27.4659771 C2.04175046,24.8518629 3.17970508,22.3280914 5.37137428,19.9354629 C8.16985742,16.8827486 12.6916922,14.1243771 18.418588,11.9998629 L34.1700503,46.71192 C26.7455032,45.7254343 20.1233783,43.8821486 14.8633722,41.4560057 L14.8633722,41.4560057 Z M72.6977386,9.03166286 C65.7729207,6.87509143 57.5445235,5.56657714 48.6850399,5.40337714 L46.801775,0.899348571 L44.9856165,5.39754857 C32.9321498,5.61320571 22.0580439,7.94609143 14.0009825,11.6530629 C9.76899065,13.6012629 6.30658166,15.92832 3.86504789,18.5890629 C1.42922532,21.2366914 0,24.2573486 0,27.4659771 C0,30.6760629 1.42922532,33.6894343 3.86504789,36.3370629 C7.53163193,40.3194343 13.475553,43.5878057 20.9001001,45.8944629 C28.3189361,48.2025771 37.2241092,49.5431486 46.801775,49.5431486 C59.571996,49.5431486 71.1371559,47.1694629 79.6025675,43.2730629 C83.8288481,41.3248629 87.2912571,38.9978057 89.7327909,36.3370629 C92.1743246,33.6894343 93.596411,30.6760629 93.596411,27.4659771 C93.596411,24.2573486 92.1743246,21.2366914 89.7327909,18.5890629 C86.0733458,14.6081486 80.1222858,11.3456057 72.6977386,9.03166286 L72.6977386,9.03166286 Z" id="Fill-1" fill="#FFFFFF" mask="url(#mask-2)"/>
                </g>
                <polygon id="Fill-4" fill="#FFFFFF" points="103.120106 24.8020286 106.179876 24.8020286 106.179876 35.9171143 110.436141 35.9171143 110.436141 24.8020286 113.437371 24.8020286 113.437371 21.2830286 103.120106 21.2830286"/>
                <polygon id="Fill-6" fill="#FFFFFF" points="114.416983 35.9169686 125.372473 35.9169686 125.372473 32.4198257 118.796038 32.4198257 118.796038 30.0519686 124.117439 30.0519686 124.117439 26.7806829 118.796038 26.7806829 118.796038 24.6547114 125.372473 24.6547114 125.372473 21.2828829 114.416983 21.2828829"/>
                <path d="M131.650784,29.8336886 L132.84014,25.5890314 L134.029495,29.8336886 L131.650784,29.8336886 Z M130.904046,21.2773457 L126.372217,35.9187171 L130.013101,35.9187171 L130.904046,33.0379457 L134.79765,33.0379457 L135.624345,35.9187171 L140.200436,35.9187171 L135.624345,21.2773457 L130.904046,21.2773457 Z" id="Fill-8" fill="#FFFFFF"/>
                <polygon id="Fill-10" fill="#FFFFFF" points="149.070485 29.0468314 146.945923 21.2831743 141.094808 21.2831743 141.094808 35.91726 144.460127 35.91726 144.460127 25.46226 147.244332 35.91726 150.094216 35.91726 152.754203 25.46226 152.798465 35.91726 156.967633 35.91726 156.967633 21.2831743 151.072257 21.2831743"/>
                <polygon id="Fill-12" fill="#FFFFFF" points="178.905028 29.7283371 178.862195 29.7283371 176.714787 21.2827371 173.205261 21.2827371 171.226333 29.7283371 171.182072 29.7283371 169.16031 21.2827371 164.94688 21.2827371 168.840484 35.9168229 172.755505 35.9168229 174.648764 27.8515371 174.691598 27.8515371 176.714787 35.9168229 180.478461 35.9168229 184.350648 21.2827371 180.928218 21.2827371"/>
                <polygon id="Fill-14" fill="#FFFFFF" points="185.160495 35.9169686 196.117413 35.9169686 196.117413 32.4198257 189.540978 32.4198257 189.540978 30.0519686 194.862379 30.0519686 194.862379 26.7806829 189.540978 26.7806829 189.540978 24.6547114 196.117413 24.6547114 196.117413 21.2828829 185.160495 21.2828829"/>
                <path d="M206.161255,25.3583657 L206.481081,29.4063086 L206.43682,29.4500229 L201.54233,21.2827371 L197.307482,21.2827371 L197.307482,35.9168229 L200.948366,35.9168229 L200.948366,29.0901086 C200.948366,28.0861371 200.86127,27.5732229 200.651384,26.6348229 L200.607122,26.4657943 L200.651384,26.42208 L201.949252,29.0682514 L206.139838,35.9168229 L209.802138,35.9168229 L209.802138,21.2827371 L206.161255,21.2827371 L206.161255,25.3583657 Z" id="Fill-16" fill="#FFFFFF"/>
                <path d="M218.541973,31.3327971 C218.309242,31.7349686 217.990843,32.0584543 217.585348,32.2930543 C217.034218,32.58594 216.650141,32.5495114 216.054749,32.5495114 L215.416524,32.5495114 L215.416524,24.60954 L215.92482,24.60954 C216.947123,24.60954 217.628182,24.5643686 218.332086,25.4371971 C218.947467,26.25174 219.223032,27.5340257 219.223032,28.5175971 C219.223032,29.4924257 219.057408,30.47454 218.541973,31.3327971 M216.308897,21.2799686 L210.928956,21.2799686 L210.928956,35.9155114 L216.605879,35.9155114 C218.629068,35.9155114 220.435232,35.4463114 221.884447,33.9352543 C223.226576,32.5495114 223.907636,30.5401114 223.907636,28.6195971 C223.907636,26.5300543 223.205159,24.5206543 221.67456,23.06934 C220.101128,21.5582829 218.419182,21.2799686 216.308897,21.2799686" id="Fill-18" fill="#FFFFFF"/>
                <polygon id="Fill-20" fill="#FFFFFF" points="229.733335 26.09976 227.187572 21.2824457 222.271665 21.2824457 227.187572 29.7295029 227.187572 35.9179886 231.523793 35.9179886 231.523793 29.7295029 236.098457 21.2824457 232.183436 21.2824457"/>
                <g id="Group-24" transform="translate(237.014389, 20.481421)">
                    <mask id="mask-4" fill="white">
                        <use xlink:href="#path-3"/>
                    </mask>
                    <g id="Clip-23"/>
                    <path d="M3.0300719,4.68416505 C1.89211728,4.68416505 1.05828352,3.78947934 1.05828352,2.66165077 C1.05828352,1.54693648 1.89211728,0.637679341 3.00865494,0.637679341 C4.13233159,0.637679341 4.95188737,1.54693648 4.95188737,2.6762222 C4.95188737,3.78947934 4.13233159,4.68416505 3.0300719,4.68416505 M3.00865494,0.132050769 C1.56657944,0.132050769 0.412919043,1.25259363 0.412919043,2.66165077 C0.412919043,4.09839363 1.56657944,5.22039363 3.00865494,5.22039363 C4.4735752,5.22039363 5.59725185,4.09839363 5.59725185,2.66165077 C5.59725185,1.25259363 4.4735752,0.132050769 3.00865494,0.132050769" id="Fill-22" fill="#FFFFFF" mask="url(#mask-4)"/>
                </g>
                <path d="M239.92167,23.0324743 L239.638966,23.0324743 L239.638966,22.3068171 C239.704645,22.2922457 239.813157,22.2776743 239.965932,22.2776743 C240.335731,22.2776743 240.501356,22.4306743 240.501356,22.6652743 C240.501356,22.9304743 240.241497,23.0324743 239.92167,23.0324743 M240.611296,23.22336 L240.611296,23.1869314 C240.922556,23.0980457 241.132442,22.8780171 241.132442,22.5997029 C241.132442,22.3578171 241.02393,22.15236 240.886861,22.05036 C240.705531,21.9396171 240.487078,21.8594743 240.008766,21.8594743 C239.596132,21.8594743 239.269167,21.8886171 239.045002,21.9396171 L239.045002,24.4692171 L239.624688,24.4692171 L239.624688,23.4506743 L239.900253,23.4506743 C240.225791,23.4506743 240.378565,23.5745314 240.429966,23.8543029 C240.501356,24.1471886 240.552756,24.3745029 240.625574,24.4692171 L241.256661,24.4692171 C241.198121,24.3745029 241.14672,24.2200457 241.07533,23.8382743 C240.995374,23.4943886 240.856877,23.3107886 240.611296,23.22336" id="Fill-25" fill="#FFFFFF"/>
            </g>
        </g>
    </g>
</svg>